<!-- Generator: Adobe Illustrator 21.0.2, SVG Export Plug-In  -->
<svg version="1.1"
	 xmlns="http://www.w3.org/2000/svg" xmlns:xlink="http://www.w3.org/1999/xlink" xmlns:a="http://ns.adobe.com/AdobeSVGViewerExtensions/3.0/"
	 x="0px" y="0px" width="489.941px" height="166.23px" viewBox="0 0 489.941 166.23"
	 style="enable-background:new 0 0 489.941 166.23;" xml:space="preserve">
<style type="text/css">
	.st0{fill:#0E4E95;}
	.st1{fill:#FFF100;}
</style>
<defs>
</defs>
<g>
	<path class="st0" d="M487.383,40.397l-1.294-3.92l-1.482-2.762C473.631,12.219,446.215,0,408.379,0
		c-16.423,0-40.29,2.022-60.82,11.691c-11.863,5.666-21.62,13.758-28.273,23.088c-4.32-10.077-12.703-18.648-24.355-24.285
		l-0.136-0.067c-16.543-7.733-37.885-8.377-58.328-8.377h-75.335h-10.547H82.952L64.434,96.638
		c-0.786,3.994-1.675,8.52-3.978,10.447c-1.689,1.289-6.4,2.586-12.235,2.586c-7.458,0-20.349-1.016-25.795-2.324l-11.455-2.76
		L0,160.542l11.012,2.215c12.716,2.564,32.302,3.473,46.39,3.473c18.942,0,43.046-1.959,61.452-17.25
		c1.268-1.049,2.429-2.141,3.544-3.254l-3.619,18.463h81.293l9.93-50.656h19.967c15.504,0,38.451-1.258,58.586-12.117
		c0.557-0.301,1.09-0.617,1.634-0.926c-1.032,3.189-2.378,9.969,0.565,18.936l0.103,0.309c0.133,0.395,0.272,0.791,0.424,1.193
		c4.263,15.566,15.437,27.85,32.352,35.539c14.252,6.482,32.279,9.764,53.586,9.764c22.907,0,45.287-4.201,63.017-11.826
		c23.085-9.932,37.261-25.246,41.009-44.305c2.882-14.797-1.435-28.13-11.769-37.94h20.347l0.116-11.174
		C489.96,58.832,489.938,47.894,487.383,40.397"/>
	<path class="st1" d="M130.924,98.836l16.778-85.734h-55.4L75.504,98.836c-1.087,5.51-2.484,12.658-8.034,17.162
		c-4.871,3.861-13.069,5.092-19.375,5.092c-7.675,0-21.775-1.02-28.561-2.652l-6.565,33.477c12.128,2.441,31.465,3.262,44.347,3.262
		c19.482,0,39.705-2.451,54.456-14.686C125.539,129.05,128.239,112.515,130.924,98.836 M311.136,56.096
		c2.374-14.68-5.33-28.089-20.95-35.649c-14.836-6.94-35.33-7.345-53.703-7.345h-76.813l-6.23,31.752h68.732
		c14.582,0,31.658,0,31.652,13.612c0.274,13.124-11.582,13.422-24.703,13.422h-23.075l3.257-15.947h-58.036l-1.025,5.229
		l-2.177,11.125l-15.854,80.837h58.45l9.961-50.82h29.344c18.101,0,37.156-2.051,53.418-10.828
		c15.316-8.199,24.579-20.499,27.393-33.467C310.993,57.099,311.136,56.096,311.136,56.096 M476.846,43.687
		c-0.113-0.369-0.22-0.708-0.356-0.983c-0.056-0.266-0.103-0.478-0.162-0.614c0-0.017-0.045-0.026-0.061-0.042
		c-8.438-21.879-36.714-30.989-67.839-30.989c-18.645,0-39.185,2.651-56.103,10.617c-16.364,7.83-27.927,20.989-30.851,34.421
		c0,0-0.226,0.87-0.358,1.921c-5.259,32.202,34.677,39.256,68.622,44.295c8.25,1.215,22.489,2.856,20.814,11.426
		c-1.526,7.766-16.514,8.57-23.916,8.57c-14.467,0-25.175-3.367-29.431-12.307l-1.54-6.51H300.89c0,0-2.468,5.428,0.919,14.078
		c0,0,0,0.014,0.006,0.023c6.96,26.693,38.131,37.582,75.371,37.582c38.93,0,86.568-13.473,93.189-47.156
		c2.982-15.303-4.065-28.37-20.989-35.724c-15.223-6.315-33.706-8.566-51.028-11.231c-6.882-1.216-20.294-2.643-18.887-9.99
		c1.462-7.361,12.745-8.984,20.417-8.984c14.547,0,24.246,3.667,27.69,14.091c0.32,1.116,0.614,2.633,0.614,4.615h50.689
		C478.88,60.795,478.993,49.676,476.846,43.687"/>
</g>
</svg>